<svg width="33" height="33" viewBox="0 0 33 33" fill="none" xmlns="http://www.w3.org/2000/svg">
<g clip-path="url(#clip0_0_484)">
<path d="M32.5 16.5C32.5 7.66344 25.3366 0.5 16.5 0.5C7.66344 0.5 0.5 7.66344 0.5 16.5C0.5 25.3366 7.66344 32.5 16.5 32.5C25.3366 32.5 32.5 25.3366 32.5 16.5Z" fill="#242424"/>
<g clip-path="url(#clip1_0_484)">
<path d="M24.6169 16.6499C24.6169 15.9944 24.5637 15.516 24.4487 15.02H16.9683V17.9786H21.3591C21.2706 18.7139 20.7926 19.8212 19.7302 20.5652L19.7154 20.6643L22.0805 22.4978L22.2444 22.5141C23.7493 21.1233 24.6169 19.0771 24.6169 16.6499Z" fill="white"/>
<path d="M16.9682 24.4452C19.1193 24.4452 20.9253 23.7365 22.2443 22.5141L19.7302 20.5652C19.0574 21.0347 18.1544 21.3625 16.9682 21.3625C14.8613 21.3625 13.0731 19.9718 12.4356 18.0495L12.3422 18.0574L9.88287 19.962L9.85071 20.0515C11.1609 22.6558 13.8521 24.4452 16.9682 24.4452Z" fill="white"/>
<path d="M12.4357 18.0495C12.2675 17.5534 12.1702 17.0219 12.1702 16.4727C12.1702 15.9234 12.2675 15.392 12.4269 14.8959L12.4224 14.7902L9.93228 12.8551L9.8508 12.8939C9.31082 13.9746 9.00098 15.1882 9.00098 16.4727C9.00098 17.7571 9.31082 18.9707 9.8508 20.0514L12.4357 18.0495Z" fill="white"/>
<path d="M16.9682 11.5829C18.4643 11.5829 19.4734 12.2295 20.0489 12.7699L22.2974 10.573C20.9165 9.28858 19.1193 8.50018 16.9682 8.50018C13.8521 8.50018 11.1609 10.2896 9.85071 12.8939L12.4268 14.8959C13.0731 12.9736 14.8613 11.5829 16.9682 11.5829Z" fill="white"/>
</g>
</g>
<defs>
<clipPath id="clip0_0_484">
<rect width="32" height="32" fill="white" transform="translate(0.5 0.5)"/>
</clipPath>
<clipPath id="clip1_0_484">
<rect width="15.625" height="16" fill="white" transform="translate(9.00012 8.50018)"/>
</clipPath>
</defs>
</svg>
